<svg xmlns="http://www.w3.org/2000/svg" viewBox="0 0 25.803 7.695"><g style="line-height:1.25;-inkscape-font-specification:'sans-serif Italic'" font-style="italic" font-weight="700" font-size="40" font-family="sans-serif" letter-spacing="0" word-spacing="0"><path d="M7.27 7.695H5.086L3.354 4.579l-.801.697-.558 2.419H0L1.773 0h1.994l-.78 3.39L6.46 0h2.356L4.93 3.581zM9.645 0L7.867 7.695h1.995l1.434-6.207h5.555L17.195 0h-5.556zm4.77 3.39l-.65 2.816h-1.657l-.344 1.489h3.653l.993-4.304zM18.253 0l-1.778 7.695h1.995l1.434-6.207h5.555L25.803 0h-5.555zm4.77 3.39l-.65 2.816h-1.657l-.343 1.489h3.652l.993-4.304z" style="line-height:1.25;-inkscape-font-specification:'sans-serif Bold Italic'"/></g></svg>